<svg width="1331" height="1269" viewBox="0 0 1331 1269" fill="none" xmlns="http://www.w3.org/2000/svg">
<path d="M301.083 651.175L292 619H298.27L304.069 642.644H304.367L310.559 619H316.263L322.471 642.66H322.754L328.552 619H334.822L325.739 651.175H319.988L313.545 628.599H313.293L306.835 651.175H301.083Z" fill="black"/>
<path d="M704.652 882.285C704.506 880.912 703.888 879.844 702.798 879.079C701.72 878.315 700.316 877.933 698.587 877.933C697.371 877.933 696.329 878.116 695.46 878.483C694.591 878.849 693.926 879.346 693.464 879.975C693.004 880.604 692.768 881.32 692.757 882.127C692.757 882.798 692.909 883.379 693.213 883.872C693.527 884.363 693.951 884.783 694.485 885.128C695.02 885.463 695.612 885.746 696.261 885.976C696.911 886.206 697.566 886.401 698.225 886.557L701.242 887.312C702.457 887.595 703.626 887.977 704.747 888.458C705.878 888.94 706.89 889.548 707.78 890.281C708.681 891.014 709.393 891.9 709.917 892.937C710.441 893.973 710.703 895.189 710.703 896.581C710.703 898.467 710.221 900.126 709.258 901.561C708.293 902.985 706.9 904.102 705.077 904.908C703.264 905.703 701.069 906.102 698.492 906.102C695.989 906.102 693.815 905.714 691.971 904.939C690.138 904.164 688.702 903.033 687.665 901.546C686.639 900.058 686.083 898.247 686 896.11H691.735C691.819 897.231 692.164 898.163 692.772 898.906C693.38 899.65 694.17 900.206 695.145 900.571C696.131 900.939 697.23 901.121 698.445 901.121C699.714 901.121 700.823 900.933 701.777 900.557C702.741 900.169 703.494 899.635 704.04 898.953C704.585 898.262 704.862 897.455 704.872 896.534C704.862 895.696 704.616 895.004 704.135 894.46C703.652 893.906 702.977 893.444 702.106 893.078C701.248 892.701 700.242 892.366 699.09 892.073L695.429 891.13C692.778 890.449 690.682 889.417 689.142 888.035C687.612 886.641 686.848 884.793 686.848 882.488C686.848 880.593 687.361 878.933 688.388 877.508C689.425 876.084 690.834 874.979 692.616 874.193C694.396 873.397 696.413 873 698.665 873C700.95 873 702.95 873.397 704.669 874.193C706.397 874.979 707.754 876.073 708.738 877.477C709.724 878.869 710.231 880.472 710.262 882.285H704.652Z" fill="black"/>
<path d="M1049 651.175V619H1069.93V623.886H1054.83V632.62H1068.85V637.508H1054.83V646.29H1070.06V651.175H1049Z" fill="black"/>
<path d="M711.448 365V397.176H706.262L691.098 375.259H690.83V397.176H685V365H690.217L705.366 386.932H705.65V365H711.448Z" fill="black"/>
<line x1="1.2542e-07" y1="633.5" x2="1331" y2="633.5" stroke="black" stroke-width="3"/>
<line x1="696.5" y1="-6.55671e-08" x2="696.5" y2="1269" stroke="black" stroke-width="3"/>
<path d="M284 217L1111.59 1044.59" stroke="black" stroke-width="3" stroke-dasharray="6 7"/>
<path d="M284.205 1045.34L1111.79 217.748" stroke="black" stroke-width="3" stroke-dasharray="6 7"/>
</svg>
