<svg width="165" height="31" viewBox="0 0 165 31" fill="none"
    xmlns="http://www.w3.org/2000/svg">
    <path d="M27.8642 0.195287C27.3145 0.195287 27.0397 0.468689 26.8433 1.05455C25.4299 4.6869 23.9772 8.28018 22.4852 12.0297C22.0926 11.7172 21.7785 11.4438 21.4644 11.2095C17.067 7.65526 12.6696 4.14009 8.2329 0.585862C7.80101 0.234345 7.36914 0.0390575 6.97651 0C6.85873 0 6.78018 0 6.6624 0H1.83311C-0.483379 0 -0.679677 3.47611 1.67607 3.63234C1.79386 3.63234 1.91164 3.63234 2.02942 3.63234H5.36674C6.62314 6.60071 7.84028 9.56908 9.09668 12.5765C11.3346 17.9664 13.5726 23.3173 15.8498 28.7072C16.0461 29.215 16.5566 29.7227 17.0277 29.918C18.0878 30.3867 18.9123 29.8009 19.5012 28.3948C22.9171 20.1927 26.3722 11.9906 29.788 3.78857C30.2592 2.69497 30.6911 1.60136 31.2015 0.390575L31.28 0.195287H27.8642ZM21.0717 15.5058C20.0117 18.0446 19.0301 20.5833 17.97 23.122L17.6559 23.8641L17.5381 24.1766L17.4596 24.0203L17.3811 23.786C15.1824 18.4351 13.0229 13.1233 10.8635 7.81149L10.5101 6.99129L10.4316 6.75694L10.6279 6.91317C10.8635 7.0694 11.0598 7.22563 11.2954 7.38186C14.4364 9.84248 17.5774 12.3031 20.6791 14.7637C20.9147 14.959 21.2288 15.0371 21.0717 15.5058Z" fill="url(#paint0_linear_2352_5447)"/>
    <path d="M38.5332 21.9505C37.6601 21.9505 36.8708 21.801 36.1651 21.502C35.4714 21.203 34.9213 20.7725 34.5146 20.2103C34.108 19.6482 33.8987 18.9844 33.8867 18.219H36.5777C36.6136 18.7333 36.793 19.1399 37.116 19.4389C37.4508 19.7379 37.9053 19.8874 38.4794 19.8874C39.0655 19.8874 39.5259 19.7499 39.8608 19.4748C40.1957 19.1877 40.3631 18.817 40.3631 18.3625C40.3631 17.9917 40.2495 17.6867 40.0223 17.4475C39.795 17.2083 39.508 17.023 39.1611 16.8914C38.8263 16.7479 38.3598 16.5924 37.7618 16.4249C36.9485 16.1857 36.2847 15.9525 35.7704 15.7253C35.2681 15.4861 34.8316 15.1333 34.4608 14.6668C34.102 14.1884 33.9226 13.5545 33.9226 12.7651C33.9226 12.0236 34.108 11.3778 34.4787 10.8276C34.8495 10.2774 35.3698 9.85884 36.0395 9.5718C36.7093 9.27279 37.4748 9.12329 38.3359 9.12329C39.6276 9.12329 40.6741 9.44023 41.4754 10.0741C42.2887 10.696 42.7372 11.5691 42.8209 12.6934H40.0581C40.0342 12.2628 39.8488 11.91 39.502 11.6349C39.1671 11.3479 38.7186 11.2044 38.1565 11.2044C37.6661 11.2044 37.2714 11.3299 36.9724 11.5811C36.6854 11.8323 36.5419 12.197 36.5419 12.6754C36.5419 13.0103 36.6495 13.2914 36.8648 13.5186C37.092 13.7339 37.3671 13.9133 37.69 14.0568C38.0249 14.1884 38.4914 14.3439 39.0894 14.5233C39.9027 14.7625 40.5665 15.0017 41.0807 15.2409C41.595 15.4801 42.0375 15.8389 42.4083 16.3173C42.7791 16.7957 42.9645 17.4236 42.9645 18.201C42.9645 18.8708 42.791 19.4927 42.4442 20.0668C42.0973 20.6409 41.589 21.1014 40.9193 21.4482C40.2495 21.7831 39.4542 21.9505 38.5332 21.9505Z" fill="black"/>
    <path d="M58.7944 9.30269V21.8249H56.2828V13.6801L52.928 21.8249H51.0263L47.6536 13.6801V21.8249H45.1419V9.30269H47.9944L51.9772 18.6137L55.9599 9.30269H58.7944Z" fill="black"/>
    <path d="M68.956 19.4389H63.9686L63.1434 21.8249H60.5062L65.0092 9.28475H67.9334L72.4364 21.8249H69.7813L68.956 19.4389ZM68.2743 17.4296L66.4623 12.1911L64.6504 17.4296H68.2743Z" fill="black"/>
    <path d="M80.578 21.8249L77.8152 16.9452H76.6312V21.8249H74.1196V9.30269H78.8199C79.7887 9.30269 80.6139 9.47611 81.2956 9.82296C81.9774 10.1578 82.4857 10.6183 82.8206 11.2044C83.1674 11.7784 83.3408 12.4243 83.3408 13.1419C83.3408 13.9671 83.1016 14.7146 82.6232 15.3844C82.1448 16.0422 81.4332 16.4967 80.4883 16.7479L83.4843 21.8249H80.578ZM76.6312 15.0615H78.7302C79.4119 15.0615 79.9202 14.9 80.2551 14.5771C80.59 14.2422 80.7574 13.7818 80.7574 13.1957C80.7574 12.6216 80.59 12.1791 80.2551 11.8681C79.9202 11.5452 79.4119 11.3838 78.7302 11.3838H76.6312V15.0615Z" fill="black"/>
    <path d="M94.1341 9.30269V11.3299H90.7972V21.8249H88.2856V11.3299H84.9487V9.30269H94.1341Z" fill="black"/>
    <path d="M107.974 9.30269V11.3299H102.753V14.5412H106.754V16.5326H102.753V21.8249H100.241V9.30269H107.974Z" fill="black"/>
    <path d="M115.567 21.9505C114.395 21.9505 113.319 21.6754 112.338 21.1253C111.357 20.5751 110.58 19.8156 110.006 18.8469C109.432 17.8661 109.145 16.7598 109.145 15.5279C109.145 14.308 109.432 13.2137 110.006 12.2449C110.58 11.2642 111.357 10.4987 112.338 9.94854C113.319 9.39837 114.395 9.12329 115.567 9.12329C116.751 9.12329 117.828 9.39837 118.797 9.94854C119.777 10.4987 120.549 11.2642 121.111 12.2449C121.685 13.2137 121.972 14.308 121.972 15.5279C121.972 16.7598 121.685 17.8661 121.111 18.8469C120.549 19.8156 119.777 20.5751 118.797 21.1253C117.816 21.6754 116.739 21.9505 115.567 21.9505ZM115.567 19.708C116.321 19.708 116.985 19.5406 117.559 19.2057C118.133 18.8588 118.581 18.3685 118.904 17.7346C119.227 17.1007 119.389 16.3651 119.389 15.5279C119.389 14.6907 119.227 13.9612 118.904 13.3392C118.581 12.7053 118.133 12.221 117.559 11.8861C116.985 11.5512 116.321 11.3838 115.567 11.3838C114.814 11.3838 114.144 11.5512 113.558 11.8861C112.984 12.221 112.535 12.7053 112.212 13.3392C111.89 13.9612 111.728 14.6907 111.728 15.5279C111.728 16.3651 111.89 17.1007 112.212 17.7346C112.535 18.3685 112.984 18.8588 113.558 19.2057C114.144 19.5406 114.814 19.708 115.567 19.708Z" fill="black"/>
    <path d="M130.299 21.8249L127.536 16.9452H126.352V21.8249H123.841V9.30269H128.541C129.51 9.30269 130.335 9.47611 131.017 9.82296C131.698 10.1578 132.207 10.6183 132.542 11.2044C132.888 11.7784 133.062 12.4243 133.062 13.1419C133.062 13.9671 132.823 14.7146 132.344 15.3844C131.866 16.0422 131.154 16.4967 130.209 16.7479L133.205 21.8249H130.299ZM126.352 15.0615H128.451C129.133 15.0615 129.641 14.9 129.976 14.5771C130.311 14.2422 130.478 13.7818 130.478 13.1957C130.478 12.6216 130.311 12.1791 129.976 11.8681C129.641 11.5452 129.133 11.3838 128.451 11.3838H126.352V15.0615Z" fill="black"/>
    <path d="M137.845 11.3299V14.4695H142.061V16.4608H137.845V19.7798H142.599V21.8249H135.333V9.28475H142.599V11.3299H137.845Z" fill="black"/>
    <path d="M149.205 21.9505C148.332 21.9505 147.543 21.801 146.837 21.502C146.143 21.203 145.593 20.7725 145.187 20.2103C144.78 19.6482 144.571 18.9844 144.559 18.219H147.25C147.286 18.7333 147.465 19.1399 147.788 19.4389C148.123 19.7379 148.577 19.8874 149.151 19.8874C149.738 19.8874 150.198 19.7499 150.533 19.4748C150.868 19.1877 151.035 18.817 151.035 18.3625C151.035 17.9917 150.922 17.6867 150.694 17.4475C150.467 17.2083 150.18 17.023 149.833 16.8914C149.498 16.7479 149.032 16.5924 148.434 16.4249C147.621 16.1857 146.957 15.9525 146.442 15.7253C145.94 15.4861 145.504 15.1333 145.133 14.6668C144.774 14.1884 144.595 13.5545 144.595 12.7651C144.595 12.0236 144.78 11.3778 145.151 10.8276C145.522 10.2774 146.042 9.85884 146.712 9.5718C147.381 9.27279 148.147 9.12329 149.008 9.12329C150.3 9.12329 151.346 9.44023 152.147 10.0741C152.961 10.696 153.409 11.5691 153.493 12.6934H150.73C150.706 12.2628 150.521 11.91 150.174 11.6349C149.839 11.3479 149.391 11.2044 148.829 11.2044C148.338 11.2044 147.943 11.3299 147.644 11.5811C147.357 11.8323 147.214 12.197 147.214 12.6754C147.214 13.0103 147.322 13.2914 147.537 13.5186C147.764 13.7339 148.039 13.9133 148.362 14.0568C148.697 14.1884 149.163 14.3439 149.761 14.5233C150.575 14.7625 151.239 15.0017 151.753 15.2409C152.267 15.4801 152.71 15.8389 153.08 16.3173C153.451 16.7957 153.637 17.4236 153.637 18.201C153.637 18.8708 153.463 19.4927 153.116 20.0668C152.769 20.6409 152.261 21.1014 151.591 21.4482C150.922 21.7831 150.126 21.9505 149.205 21.9505Z" fill="black"/>
    <path d="M164.336 9.30269V11.3299H160.999V21.8249H158.487V11.3299H155.15V9.30269H164.336Z" fill="black"/>
    <defs>
        <linearGradient id="paint0_linear_2352_5447" x1="15.64" y1="0" x2="5.24231" y2="27.3462" gradientUnits="userSpaceOnUse">
            <stop stop-color="#68E86F"/>
            <stop offset="0.435283" stop-color="#42C161"/>
            <stop offset="1" stop-color="#159B58"/>
        </linearGradient>
    </defs>
</svg>
